<?xml version="1.0" encoding="utf-8"?>
<!-- Generator: Adobe Illustrator 21.1.0, SVG Export Plug-In . SVG Version: 6.00 Build 0)  -->
<svg version="1.1" id="Layer_1" xmlns="http://www.w3.org/2000/svg" xmlns:xlink="http://www.w3.org/1999/xlink" x="0px" y="0px"
	 viewBox="0 0 81 81" style="enable-background:new 0 0 81 81;" xml:space="preserve">
<style type="text/css">
	.st0{fill:none;stroke:#6BCABA;stroke-width:3;}
	.st1{display:none;enable-background:new    ;}
	.st2{display:inline;fill:#6BCABA;}
	.st3{enable-background:new    ;}
	.st4{fill:#6BCABA;}
</style>
<circle class="st0" cx="40.5" cy="40.5" r="39"/>
<g class="st1">
	<path class="st2" d="M19.2,43c-0.5-0.5-0.7-1-0.7-1.8c0-0.7,0.2-1.3,0.7-1.8c0.5-0.5,1-0.7,1.8-0.7H38V21.7c0-0.7,0.2-1.3,0.7-1.8
		c0.5-0.5,1-0.7,1.8-0.7c0.7,0,1.3,0.2,1.8,0.7c0.5,0.5,0.7,1,0.7,1.8v17.1H60c0.7,0,1.3,0.2,1.8,0.7c0.5,0.5,0.7,1,0.7,1.8
		c0,0.7-0.2,1.3-0.7,1.8c-0.5,0.5-1,0.7-1.8,0.7H42.9v17.1c0,0.7-0.2,1.3-0.7,1.8c-0.5,0.5-1,0.7-1.8,0.7c-0.7,0-1.3-0.2-1.8-0.7
		c-0.5-0.5-0.7-1-0.7-1.8V43.7H21C20.2,43.7,19.7,43.4,19.2,43z"/>
</g>
<g class="st3">
	<path class="st4" d="M18.9,43c-0.5-0.5-0.7-1-0.7-1.8c0-0.7,0.2-1.3,0.7-1.8c0.5-0.5,1-0.7,1.8-0.7h39c0.7,0,1.3,0.2,1.8,0.7
		c0.5,0.5,0.7,1,0.7,1.8c0,0.7-0.2,1.3-0.7,1.8c-0.5,0.5-1,0.7-1.8,0.7h-39C20,43.7,19.4,43.4,18.9,43z"/>
</g>
</svg>
