<svg id="Layer_1" data-name="Layer 1" xmlns="http://www.w3.org/2000/svg" viewBox="0 0 85.28 85.28"><defs><style>.cls-1{fill:rgb(245, 245, 245);}.cls-2{fill:rgb(143, 212, 0)}</style></defs><title>Smile</title><path class="cls-1" d="M42.64,78.91a36.3,36.3,0,1,0-36.3-36.3h0a36.3,36.3,0,0,0,36.3,36.3" transform="translate(0 0)"/><path class="cls-1" d="M2.34,42.64a40.3,40.3,0,1,1,40.3,40.3h0a40.3,40.3,0,0,1-40.3-40.3m40.3,42.64A42.64,42.64,0,1,0,0,42.64H0A42.64,42.64,0,0,0,42.64,85.28h0" transform="translate(0 0)"/><path class="cls-2" d="M42.64,24.66a18,18,0,1,0,18,18A18,18,0,0,0,42.64,24.66Zm-8,14.51A2.86,2.86,0,1,1,37.5,42h0a2.86,2.86,0,0,1-2.9-2.82v0ZM48.7,51a7.93,7.93,0,0,1-12.19,0,1.32,1.32,0,0,1,1.06-2.1h10A1.32,1.32,0,0,1,48.66,51ZM47.86,42a2.86,2.86,0,1,1,2.86-2.86h0A2.86,2.86,0,0,1,47.87,42h0Z" transform="translate(0 0)"/></svg>



