<?xml version="1.0" encoding="utf-8"?>
<!-- Generator: Adobe Illustrator 21.1.0, SVG Export Plug-In . SVG Version: 6.00 Build 0)  -->
<svg version="1.1" id="Layer_1" xmlns="http://www.w3.org/2000/svg" xmlns:xlink="http://www.w3.org/1999/xlink" x="0px" y="0px"
	 viewBox="0 0 612 792" style="enable-background:new 0 0 612 792;" xml:space="preserve">
<style type="text/css">
	.st0{fill:#333E48;}
</style>
<polygon class="st0" points="329.9,148.1 335,148.1 341.5,138.9 341.5,148.1 345.1,148.1 351.6,138.9 351.6,147.2 356,141.1 
	356,131.2 351.9,131.2 345.8,139.9 345.8,131.3 341.8,131.3 "/>
<path class="st0" d="M332,135.9h3.8c0-2.9-1.9-5.2-5.4-5.2c-3.3-0.1-5.6,2.1-5.6,5c0,2.1,1.2,3.7,3,4.6c1.2,0.6,2.3,0.9,3,1.4
	c1,0.7,1,1.8,0.3,2.5c-0.8,0.8-2.8,0.6-2.8-1.7h-3.9c0,1.6,0.2,2.7,1.2,3.9c1.1,1.2,2.1,1.7,3.8,1.8l5.7-8.1
	c-1.2-1.3-2.7-2.1-4.3-2.7c-1.1-0.4-2.4-1.3-1.5-2.6C330,133.9,331.7,134.1,332,135.9"/>
<path class="st0" d="M306,131.3h4.3v9.1l6.5-9h3.5v9.2l4-5.4c0,1,0.1,1.6,0.4,2.5c0.4,1.1,0.7,1.2,1.4,1.9l-5.9,8.5h-4v-8.6
	l-6.1,8.6H306V131.3z"/>
<path class="st0" d="M367.4,131.3v16.8h-4.5v-2.3h-4.8l-1.6,2.3h-5l11.8-16.8L367.4,131.3z M362.8,139.1l-2.3,3.3h2.3V139.1z"/>
</svg>
