<svg id="Layer_1" data-name="Layer 1" xmlns="http://www.w3.org/2000/svg" viewBox="0 0 221.62 42.3">
  <defs>
    <style>
      .cls-1 {
        fill: none;
        stroke: #fff;
        stroke-miterlimit: 3.86;
        /*stroke-width: 0.36px;*/
      }

      .cls-2 {
        fill: #fff;
      }

      .cls-3 {
        fill: #a22a2e;
      }
    </style>
  </defs>
  <title>Logo</title>
  <line class="cls-1" x1="69.17" y1="0.19" x2="69.17" y2="29.95"/>
  <g>
    <path class="cls-2" d="M446.24,160a3.24,3.24,0,0,1,.7-.06c.82,0,1.36.37,1.36,1.12s-.55,1.22-1.44,1.22a2.48,2.48,0,0,1-.61-.06Zm-.74,5.15h.74v-2.32a2.54,2.54,0,0,0,.6.05,2.39,2.39,0,0,0,1.76-.63,1.66,1.66,0,0,0,.45-1.23,1.54,1.54,0,0,0-.51-1.19,2.37,2.37,0,0,0-1.61-.48,7.58,7.58,0,0,0-1.43.12Z" transform="translate(-306 -124.61)"/>
    <path class="cls-2" d="M451.71,163.75a.73.73,0,0,1,0,.24,1,1,0,0,1-1,.69.66.66,0,0,1-.7-.72c0-.8.93-.95,1.75-.93Zm.73-1.15c0-.83-.31-1.69-1.58-1.69a2.68,2.68,0,0,0-1.37.36l.17.5a2,2,0,0,1,1.09-.31.85.85,0,0,1,.94,1v.08c-1.6,0-2.49.54-2.49,1.54a1.18,1.18,0,0,0,1.26,1.19,1.53,1.53,0,0,0,1.26-.61h0l.07.52h.68a6.9,6.9,0,0,1-.06-1Z" transform="translate(-306 -124.61)"/>
    <path class="cls-2" d="M453.82,160.25V161h-.64v.57h.64v2.25a1.62,1.62,0,0,0,.29,1.08,1.07,1.07,0,0,0,.81.32,2,2,0,0,0,.67-.1l0-.57a1.35,1.35,0,0,1-.43.05c-.42,0-.56-.29-.56-.8v-2.22h1.08V161h-1.08v-1Z" transform="translate(-306 -124.61)"/>
    <path class="cls-2" d="M456.85,160.32a.46.46,0,1,0-.46-.46.45.45,0,0,0,.45.46Zm-.37,4.83h.75V161h-.75Z" transform="translate(-306 -124.61)"/>
    <path class="cls-2" d="M458.91,162.68a1.24,1.24,0,0,1,1.15-1.22,1.07,1.07,0,0,1,1,1.22Zm2.89.54a1.83,1.83,0,0,0,0-.35,1.74,1.74,0,0,0-1.7-1.95,2,2,0,0,0-1.95,2.23,1.93,1.93,0,0,0,2,2.08,3.39,3.39,0,0,0,1.38-.27l-.14-.54a2.69,2.69,0,0,1-1.14.21,1.32,1.32,0,0,1-1.41-1.43Z" transform="translate(-306 -124.61)"/>
    <path class="cls-2" d="M462.75,165.15h.75v-2.49a1.1,1.1,0,0,1,.05-.35,1.08,1.08,0,0,1,1-.77c.71,0,1,.56,1,1.23v2.38h.75v-2.47c0-1.42-.89-1.76-1.46-1.76a1.53,1.53,0,0,0-1.37.77h0l0-.68h-.67c0,.34,0,.68,0,1.12Z" transform="translate(-306 -124.61)"/>
    <path class="cls-2" d="M467.67,160.25V161H467v.57h.64v2.25a1.61,1.61,0,0,0,.29,1.08,1.07,1.07,0,0,0,.81.32,2.06,2.06,0,0,0,.67-.1l0-.57a1.34,1.34,0,0,1-.44.05c-.42,0-.56-.29-.56-.8v-2.22h1.08V161H468.4v-1Z" transform="translate(-306 -124.61)"/>
  </g>
  <polygon class="cls-2" points="166.51 40.54 167.26 40.54 167.26 37.93 169.43 37.93 169.43 37.32 167.26 37.32 167.26 35.41 169.61 35.41 169.61 34.78 166.51 34.78 166.51 40.54"/>
  <g>
    <path class="cls-2" d="M478,164.68c-.73,0-1.24-.68-1.24-1.59s.39-1.6,1.26-1.6,1.24.88,1.24,1.58c0,.94-.54,1.61-1.26,1.61Zm0,.56a2,2,0,0,0,2-2.2,2,2,0,0,0-2-2.12,2,2,0,0,0-2.05,2.19,2,2,0,0,0,2,2.13Z" transform="translate(-306 -124.61)"/>
    <path class="cls-2" d="M483.8,164.43a2.14,2.14,0,0,1-.92.2,1.42,1.42,0,0,1-1.43-1.55,1.43,1.43,0,0,1,1.46-1.56,1.85,1.85,0,0,1,.87.2l.17-.57a2.38,2.38,0,0,0-1-.22,2.11,2.11,0,0,0-2.22,2.2,2,2,0,0,0,2.06,2.11,2.87,2.87,0,0,0,1.19-.24Z" transform="translate(-306 -124.61)"/>
    <path class="cls-2" d="M488.26,161h-.75v2.53a1,1,0,0,1-.07.38,1.08,1.08,0,0,1-1,.69c-.67,0-.92-.54-.92-1.32V161h-.75v2.42c0,1.44.78,1.81,1.43,1.81a1.54,1.54,0,0,0,1.37-.77h0l0,.67h.67c0-.33,0-.7,0-1.14Z" transform="translate(-306 -124.61)"/>
    <path class="cls-2" d="M489.23,164.94a2.34,2.34,0,0,0,1.16.29c1,0,1.54-.51,1.54-1.25s-.37-1-1.08-1.24c-.54-.21-.78-.37-.78-.71s.24-.56.68-.56a1.71,1.71,0,0,1,.85.24l.18-.54a1.92,1.92,0,0,0-1-.26,1.28,1.28,0,0,0-1.43,1.21c0,.49.35.9,1.1,1.17.55.21.76.39.76.75s-.26.61-.8.61a2.13,2.13,0,0,1-1-.29Z" transform="translate(-306 -124.61)"/>
    <path class="cls-2" d="M493.33,162.68a1.24,1.24,0,0,1,1.15-1.22,1.07,1.07,0,0,1,1,1.22Zm2.89.54a2,2,0,0,0-1.67-2.3,2,2,0,0,0-1.95,2.23,1.93,1.93,0,0,0,2,2.08A3.38,3.38,0,0,0,496,165l-.14-.54a2.7,2.7,0,0,1-1.15.21,1.32,1.32,0,0,1-1.41-1.43Z" transform="translate(-306 -124.61)"/>
    <path class="cls-2" d="M500,163.41a1.21,1.21,0,0,1,0,.32,1.14,1.14,0,0,1-1.1.91c-.8,0-1.22-.69-1.22-1.54s.46-1.59,1.24-1.59a1.1,1.1,0,0,1,1.08.86,1.41,1.41,0,0,1,0,.32Zm0-4.33v2.46h0a1.37,1.37,0,0,0-1.25-.62,2,2,0,0,0-1.85,2.22,1.89,1.89,0,0,0,1.78,2.1,1.52,1.52,0,0,0,1.4-.81h0l0,.72h.67c0-.28,0-.7,0-1.07v-5Z" transform="translate(-306 -124.61)"/>
    <path class="cls-2" d="M385.29,159.88a3.19,3.19,0,0,1,.7-.06c.82,0,1.36.37,1.36,1.12s-.55,1.22-1.44,1.22a2.53,2.53,0,0,1-.61-.06Zm-.74,5.15h.74v-2.32a2.54,2.54,0,0,0,.6.05,2.39,2.39,0,0,0,1.76-.63,1.66,1.66,0,0,0,.45-1.23,1.54,1.54,0,0,0-.51-1.19,2.36,2.36,0,0,0-1.61-.48,7.6,7.6,0,0,0-1.43.12Z" transform="translate(-306 -124.61)"/>
    <path class="cls-2" d="M388.7,165h.75v-2.49a.92.92,0,0,1,0-.36,1.09,1.09,0,0,1,1-.75c.71,0,1,.55,1,1.22V165h.75v-2.46c0-1.43-.89-1.77-1.44-1.77a1.47,1.47,0,0,0-.77.21,1.34,1.34,0,0,0-.54.53h0V159h-.75Z" transform="translate(-306 -124.61)"/>
    <path class="cls-2" d="M392.89,160.9l1.52,3.81a.52.52,0,0,1,.06.2.55.55,0,0,1-.06.18,2.38,2.38,0,0,1-.63.84,2,2,0,0,1-.66.37l.19.62a2.13,2.13,0,0,0,.92-.48,6.36,6.36,0,0,0,1.42-2.59l1.13-2.95H396l-.82,2.43c-.1.3-.19.61-.26.86h0c-.07-.25-.17-.57-.27-.84l-.9-2.44Z" transform="translate(-306 -124.61)"/>
    <path class="cls-2" d="M397.18,164.83a2.35,2.35,0,0,0,1.16.29c1,0,1.54-.51,1.54-1.25s-.38-1-1.08-1.24c-.54-.21-.78-.37-.78-.71s.24-.57.68-.57a1.69,1.69,0,0,1,.85.24l.18-.54a1.93,1.93,0,0,0-1-.26,1.28,1.28,0,0,0-1.43,1.21c0,.49.35.9,1.1,1.17.55.21.76.39.76.75s-.26.61-.79.61a2.13,2.13,0,0,1-1-.29Z" transform="translate(-306 -124.61)"/>
    <path class="cls-2" d="M401.21,160.21a.47.47,0,1,0-.46-.46.45.45,0,0,0,.46.46Zm-.37,4.83h.75V160.9h-.75Z" transform="translate(-306 -124.61)"/>
    <path class="cls-2" d="M405.66,164.31a2.16,2.16,0,0,1-.92.2A1.42,1.42,0,0,1,403.3,163a1.44,1.44,0,0,1,1.46-1.56,1.83,1.83,0,0,1,.87.2l.17-.57a2.38,2.38,0,0,0-1-.22,2.11,2.11,0,0,0-2.22,2.2,2,2,0,0,0,2.06,2.11,2.91,2.91,0,0,0,1.19-.24Z" transform="translate(-306 -124.61)"/>
    <path class="cls-2" d="M407,160.21a.47.47,0,1,0-.46-.46.45.45,0,0,0,.46.46Zm-.37,4.83h.75V160.9h-.75Z" transform="translate(-306 -124.61)"/>
    <path class="cls-2" d="M410.84,163.64a.8.8,0,0,1,0,.24,1,1,0,0,1-1,.69.66.66,0,0,1-.7-.72c0-.8.93-.95,1.75-.93Zm.74-1.14c0-.83-.31-1.69-1.58-1.69a2.68,2.68,0,0,0-1.37.36l.17.5a2,2,0,0,1,1.08-.31.85.85,0,0,1,.94,1v.08c-1.6,0-2.49.54-2.49,1.54a1.18,1.18,0,0,0,1.26,1.19,1.53,1.53,0,0,0,1.27-.61h0l.07.52h.68a6.76,6.76,0,0,1-.06-1Z" transform="translate(-306 -124.61)"/>
    <path class="cls-2" d="M412.78,165h.75v-2.49a1.11,1.11,0,0,1,.05-.35,1.09,1.09,0,0,1,1-.77c.71,0,1,.56,1,1.23V165h.75v-2.47c0-1.42-.89-1.76-1.46-1.76a1.53,1.53,0,0,0-1.37.77h0l0-.68h-.67c0,.34,0,.68,0,1.12Z" transform="translate(-306 -124.61)"/>
    <path class="cls-2" d="M420.34,159.9a4.16,4.16,0,0,1,.87-.08,2.05,2.05,0,0,1,2.33,2.22,2.21,2.21,0,0,1-2.45,2.44,5,5,0,0,1-.75,0Zm-.75,5.11a10.26,10.26,0,0,0,1.36.07,3.58,3.58,0,0,0,2.55-.83,3.07,3.07,0,0,0,.83-2.24,2.62,2.62,0,0,0-.82-2.07,3.3,3.3,0,0,0-2.33-.72,10.89,10.89,0,0,0-1.59.12Z" transform="translate(-306 -124.61)"/>
    <path class="cls-2" d="M425,165h.75v-2.21a2.21,2.21,0,0,1,0-.35,1.05,1.05,0,0,1,1-1l.26,0v-.71l-.21,0a1.25,1.25,0,0,0-1.15.9h0l0-.81H425c0,.38,0,.8,0,1.29Z" transform="translate(-306 -124.61)"/>
    <path class="cls-2" d="M428.18,160.21a.47.47,0,1,0-.46-.46.45.45,0,0,0,.46.46Zm-.37,4.83h.75V160.9h-.75Z" transform="translate(-306 -124.61)"/>
    <path class="cls-2" d="M429.3,160.9l1.57,4.13h.72l1.62-4.13h-.78l-.8,2.32c-.14.38-.26.73-.35,1.07h0c-.08-.34-.2-.68-.33-1.07l-.81-2.32Z" transform="translate(-306 -124.61)"/>
    <path class="cls-2" d="M434.35,162.56a1.24,1.24,0,0,1,1.15-1.22,1.07,1.07,0,0,1,1,1.22Zm2.89.54a2,2,0,0,0-1.67-2.3,2,2,0,0,0-1.95,2.23,1.93,1.93,0,0,0,2,2.08,3.38,3.38,0,0,0,1.38-.27l-.14-.54a2.7,2.7,0,0,1-1.14.21,1.32,1.32,0,0,1-1.41-1.43Z" transform="translate(-306 -124.61)"/>
    <path class="cls-2" d="M438.2,165h.75v-2.49a1.11,1.11,0,0,1,0-.35,1.08,1.08,0,0,1,1-.77c.71,0,1,.56,1,1.23V165h.75v-2.47c0-1.42-.89-1.76-1.46-1.76a1.53,1.53,0,0,0-1.37.77h0l0-.68h-.67c0,.34,0,.68,0,1.12Z" transform="translate(-306 -124.61)"/>
  </g>
  <polygon class="cls-2" points="23.94 23.53 29 23.53 35.55 14.32 35.55 23.51 39.12 23.53 45.6 14.33 45.6 22.63 49.99 16.46 49.99 6.63 45.85 6.63 39.77 15.25 39.77 6.68 35.83 6.68 23.94 23.53"/>
  <g>
    <path class="cls-2" d="M332,135.91h3.81c0-2.94-1.85-5.15-5.42-5.22-3.29-.06-5.56,2.07-5.55,5a4.93,4.93,0,0,0,3,4.56,24.47,24.47,0,0,1,3,1.38,1.51,1.51,0,0,1,.3,2.47c-.79.77-2.79.6-2.79-1.7H324.4a5.21,5.21,0,0,0,1.2,3.94,4.92,4.92,0,0,0,3.79,1.81l5.72-8.1a10.3,10.3,0,0,0-4.26-2.67c-1.14-.42-2.39-1.28-1.48-2.56.65-.92,2.34-.71,2.62,1.1" transform="translate(-306 -124.61)"/>
    <path class="cls-2" d="M306,131.27h4.26v9.13l6.54-9h3.52v9.24l4-5.39a5.89,5.89,0,0,0,.45,2.53,4.81,4.81,0,0,0,1.36,1.95l-5.92,8.46h-4v-8.6l-6.1,8.6H306Z" transform="translate(-306 -124.61)"/>
  </g>
  <path class="cls-2" d="M367.43,131.29V148.1h-4.51v-2.28h-4.76l-1.59,2.25h-5l11.82-16.83Zm-4.58,7.77-2.28,3.29h2.28Z" transform="translate(-306 -124.61)"/>
  <path class="cls-2" d="M448.9,147.27l2-5.4h0l1.81,5.4Zm4.41,1.47,1.21,3.57h1.81L451.89,140H450l-4.61,12.26h1.71l1.28-3.57Z" transform="translate(-306 -124.61)"/>
  <g>
    <path class="cls-2" d="M463.84,145.92c0-.44-.22-2.8-3.42-2.8-1.76,0-3.38.89-3.38,2.85,0,1.23.82,1.86,2.07,2.17l1.74.43c1.28.32,1.78.56,1.78,1.28,0,1-1,1.42-2.05,1.42-2.12,0-2.32-1.13-2.37-1.83h-1.45c0,1.08.31,3.13,3.84,3.13,2,0,3.54-1.11,3.54-3,0-1.21-.65-1.9-2.51-2.36l-1.5-.37c-1.16-.29-1.62-.46-1.62-1.2,0-1.11,1.32-1.26,1.78-1.26,1.9,0,2.1.94,2.12,1.5Z" transform="translate(-306 -124.61)"/>
    <path class="cls-2" d="M472,145.92c0-.44-.22-2.8-3.42-2.8-1.76,0-3.38.89-3.38,2.85,0,1.23.82,1.86,2.07,2.17l1.74.43c1.28.32,1.78.56,1.78,1.28,0,1-1,1.42-2.05,1.42-2.12,0-2.32-1.13-2.37-1.83H465c.05,1.08.31,3.13,3.84,3.13,2,0,3.54-1.11,3.54-3,0-1.21-.65-1.9-2.51-2.36l-1.5-.37c-1.16-.29-1.62-.46-1.62-1.2,0-1.11,1.32-1.26,1.78-1.26,1.89,0,2.1.94,2.12,1.5Z" transform="translate(-306 -124.61)"/>
    <path class="cls-2" d="M474.76,147.83c0-1.2.45-3.42,2.6-3.42s2.6,2.22,2.6,3.42-.44,3.42-2.6,3.42-2.6-2.22-2.6-3.42m-1.55,0c0,2.31,1.3,4.71,4.15,4.71s4.15-2.41,4.15-4.71-1.3-4.71-4.15-4.71-4.15,2.41-4.15,4.71" transform="translate(-306 -124.61)"/>
    <path class="cls-2" d="M489.91,146.38a3.22,3.22,0,0,0-3.35-3.26c-3,0-4.29,2.2-4.29,5,0,2.58,1.49,4.48,4,4.48a3.53,3.53,0,0,0,3.64-3.42h-1.45a2.27,2.27,0,0,1-2.14,2.12c-2.07,0-2.44-1.9-2.44-3.43s.6-3.36,2.46-3.36a2,2,0,0,1,2.12,1.91Z" transform="translate(-306 -124.61)"/>
  </g>
  <path class="cls-2" d="M491.1,141.75h1.5V140h-1.5Zm1.5,1.62h-1.5v8.93h1.5Z" transform="translate(-306 -124.61)"/>
  <g>
    <path class="cls-2" d="M500,149.22c0,1.19-1.37,2.1-2.77,2.1a1.41,1.41,0,0,1-1.62-1.55c0-1.13,1.18-1.35,1.91-1.45,1.86-.24,2.24-.38,2.48-.56Zm-4.12-3.13a1.78,1.78,0,0,1,2-1.72c1.42,0,2.1.51,2.1,1.45s-.43,1-.79,1.06l-2.48.31c-2.49.31-2.72,2-2.72,2.8a2.58,2.58,0,0,0,2.8,2.58,4.06,4.06,0,0,0,3.23-1.45c.05.68.26,1.37,1.59,1.37a2.77,2.77,0,0,0,.82-.17v-1.09a2.92,2.92,0,0,1-.49.07c-.31,0-.49-.15-.49-.53v-5.14c0-2.29-2.6-2.49-3.31-2.49-2.2,0-3.62.84-3.69,3Z" transform="translate(-306 -124.61)"/>
    <path class="cls-2" d="M507,144.62v-1.25h-1.43v-2.49H504v2.49H502.8v1.25H504v5.89c0,1.08.32,1.91,1.81,1.91.15,0,.58-.07,1.13-.12v-1.18h-.53c-.31,0-.9,0-.9-.7v-5.81Z" transform="translate(-306 -124.61)"/>
  </g>
  <path class="cls-2" d="M508.11,141.75h1.5V140h-1.5Zm1.5,1.62h-1.5v8.93h1.5Z" transform="translate(-306 -124.61)"/>
  <g>
    <path class="cls-2" d="M512.4,147.83c0-1.2.44-3.42,2.6-3.42s2.6,2.22,2.6,3.42-.44,3.42-2.6,3.42-2.6-2.22-2.6-3.42m-1.55,0c0,2.31,1.3,4.71,4.15,4.71s4.15-2.41,4.15-4.71-1.3-4.71-4.15-4.71-4.15,2.41-4.15,4.71" transform="translate(-306 -124.61)"/>
    <path class="cls-2" d="M527.62,146.22a2.82,2.82,0,0,0-3.13-3.11,3.24,3.24,0,0,0-2.7,1.52h0v-1.26h-1.42v8.93h1.5v-4.87c0-2.43,1.5-3,2.36-3,1.47,0,1.91.78,1.91,2.34v5.5h1.5Z" transform="translate(-306 -124.61)"/>
    <path class="cls-2" d="M479.09,128.52c-.07-1.35-.5-3.91-4.78-3.91-3,0-4.22,1.88-4.22,3.79a3,3,0,0,0,2.61,2.89l2.51.58c2,.48,2.61.89,2.61,2.17,0,1.76-2,2.07-3.21,2.07-1.57,0-3.38-.65-3.38-2.87h-1.55a3.78,3.78,0,0,0,1.25,3.11,4.88,4.88,0,0,0,3.71,1.18c2.1,0,4.8-.8,4.8-3.71a3.19,3.19,0,0,0-2.78-3.28l-3.5-.8c-.72-.17-1.45-.51-1.45-1.55,0-1.86,1.76-2.15,2.8-2.15,1.38,0,3,.6,3,2.49Z" transform="translate(-306 -124.61)"/>
    <path class="cls-2" d="M483.84,129.51v-1.25H482.4v-2.49h-1.5v2.49h-1.21v1.25h1.21v5.89c0,1.08.33,1.91,1.81,1.91.15,0,.58-.07,1.13-.12V136h-.53c-.31,0-.9,0-.9-.7v-5.81Z" transform="translate(-306 -124.61)"/>
    <path class="cls-2" d="M490.31,134.11c0,1.2-1.37,2.1-2.77,2.1a1.41,1.41,0,0,1-1.62-1.55c0-1.13,1.18-1.35,1.91-1.45,1.86-.24,2.24-.37,2.48-.56ZM486.2,131a1.78,1.78,0,0,1,2-1.72c1.42,0,2.1.51,2.1,1.45s-.43,1-.79,1.06l-2.48.31c-2.49.31-2.72,2-2.72,2.8a2.57,2.57,0,0,0,2.8,2.58A4.06,4.06,0,0,0,490.4,136c0,.68.26,1.37,1.59,1.37a2.75,2.75,0,0,0,.82-.17V136.1a2.87,2.87,0,0,1-.49.07c-.31,0-.5-.15-.5-.53V130.5c0-2.29-2.6-2.49-3.31-2.49-2.2,0-3.62.84-3.69,3Z" transform="translate(-306 -124.61)"/>
    <path class="cls-2" d="M497,129.51v-1.25H495.6v-2.49h-1.5v2.49h-1.21v1.25h1.21v5.89c0,1.08.32,1.91,1.81,1.91.15,0,.58-.07,1.13-.12V136h-.53c-.31,0-.9,0-.9-.7v-5.81Z" transform="translate(-306 -124.61)"/>
    <path class="cls-2" d="M499.07,132a2.62,2.62,0,0,1,2.48-2.66c1.83,0,2.41,1.28,2.49,2.66Zm4.9,2.37a2.27,2.27,0,0,1-2.31,1.76c-1.73,0-2.6-1.08-2.6-2.94h6.52c0-3.16-1.27-5.21-3.84-5.21-3,0-4.29,2.2-4.29,5,0,2.58,1.49,4.47,4,4.47a3.72,3.72,0,0,0,4-3.06Z" transform="translate(-306 -124.61)"/>
  </g>
  <polygon class="cls-3" points="90.43 15.44 86.72 15.44 84.54 25.11 84.5 25.11 82.28 15.44 78.54 15.44 78.54 27.7 80.94 27.7 80.94 17.46 80.97 17.46 83.21 27.7 85.72 27.7 88.01 17.46 88.04 17.46 88.04 27.7 90.43 27.7 90.43 15.44"/>
  <g>
    <path class="cls-3" d="M399.83,146.87c.14-1.2.73-1.91,1.86-1.91a1.84,1.84,0,0,1,1.85,1.91Zm3.6,2.78a1.53,1.53,0,0,1-1.54,1c-1.93,0-2.07-1.54-2.14-2.22H406V148c0-4.15-2.48-5-4.27-5-4,0-4.36,3.5-4.36,4.6,0,3.74,2,5,4.53,5a3.93,3.93,0,0,0,4-2.9Z" transform="translate(-306 -124.61)"/>
    <path class="cls-3" d="M408.91,147.84c0-1.43.51-2.78,2-2.78S413,146.52,413,148s-.6,2.61-2.12,2.61-2-1.67-2-2.75m6.37-7.79h-2.39v4.36h0a2.91,2.91,0,0,0-2.63-1.42c-2,0-3.77,1.54-3.77,4.68,0,2.49,1.13,4.88,3.83,4.88a2.88,2.88,0,0,0,2.63-1.38h0v1.14h2.34Z" transform="translate(-306 -124.61)"/>
  </g>
  <path class="cls-3" d="M419.26,139.93h-2.39v2.22h2.39Zm0,3.3h-2.39v9.09h2.39Z" transform="translate(-306 -124.61)"/>
  <g>
    <path class="cls-3" d="M426.33,149a1.67,1.67,0,0,1-1.62,1.59c-1.81,0-1.84-2-1.84-3s.39-2.63,1.9-2.63h.12a1.54,1.54,0,0,1,1.47,1.47h2.43a3.72,3.72,0,0,0-4-3.48c-3.07,0-4.36,2.1-4.36,5,0,1.91.79,4.53,4.2,4.53a3.89,3.89,0,0,0,4.15-3.55Z" transform="translate(-306 -124.61)"/>
    <path class="cls-3" d="M434.84,149.05a2,2,0,0,1-2.13,1.79,1,1,0,0,1-1.11-1.09c0-1,.73-1.21,1.62-1.37a3.48,3.48,0,0,0,1.62-.5Zm2.34-3.43c0-2.24-2.34-2.63-3.62-2.63-1.86,0-3.79.39-4.07,3.18h2.31a1.28,1.28,0,0,1,1.47-1.26c.61,0,1.57.05,1.57,1.06,0,.51-.46.67-.84.72l-2.15.32a2.78,2.78,0,0,0-2.65,2.9,2.55,2.55,0,0,0,2.76,2.65,3.7,3.7,0,0,0,2.94-1.32,4,4,0,0,0,.22,1.08h2.58V152c-.29-.1-.53-.34-.53-1.42Z" transform="translate(-306 -124.61)"/>
  </g>
  <rect class="cls-3" x="132.77" y="15.44" width="2.39" height="12.26"/>
  <polygon class="cls-2" points="84.71 2.42 84.75 2.42 87.55 12.59 89.29 12.59 92.52 0.33 90.69 0.33 88.4 10.3 88.37 10.3 85.62 0.33 83.81 0.33 81.06 10.3 81.02 10.3 78.73 0.33 76.94 0.33 80.13 12.59 81.88 12.59 84.71 2.42"/>
  <g>
    <path class="cls-2" d="M403.81,134.11c0,1.2-1.37,2.1-2.77,2.1a1.41,1.41,0,0,1-1.62-1.55c0-1.13,1.18-1.35,1.91-1.45,1.86-.24,2.24-.38,2.48-.56ZM399.7,131a1.78,1.78,0,0,1,2-1.72c1.42,0,2.1.51,2.1,1.45s-.43,1-.79,1.06l-2.48.31c-2.49.31-2.72,2-2.72,2.8a2.57,2.57,0,0,0,2.8,2.58A4.07,4.07,0,0,0,403.9,136c.05.68.26,1.37,1.59,1.37a2.75,2.75,0,0,0,.82-.17V136.1a2.86,2.86,0,0,1-.49.07c-.31,0-.49-.15-.49-.53V130.5c0-2.29-2.6-2.49-3.31-2.49-2.2,0-3.62.84-3.69,3Z" transform="translate(-306 -124.61)"/>
    <path class="cls-2" d="M414,130.81c0-.44-.22-2.8-3.42-2.8-1.76,0-3.38.89-3.38,2.85,0,1.23.82,1.86,2.07,2.17l1.74.43c1.28.32,1.77.56,1.77,1.28,0,1-1,1.42-2,1.42-2.12,0-2.32-1.13-2.37-1.83H407c0,1.08.31,3.13,3.84,3.13,2,0,3.54-1.11,3.54-3,0-1.21-.65-1.9-2.51-2.36l-1.5-.38c-1.16-.29-1.62-.46-1.62-1.2,0-1.11,1.31-1.26,1.78-1.26,1.9,0,2.1.94,2.12,1.5Z" transform="translate(-306 -124.61)"/>
    <path class="cls-2" d="M422.82,131.12a2.82,2.82,0,0,0-3.12-3.11,3.15,3.15,0,0,0-2.61,1.45h0v-4.52h-1.5V137.2H417v-4.87c0-2.26,1.26-3,2.49-3,1.43,0,1.77.79,1.77,2v5.84h1.5Z" transform="translate(-306 -124.61)"/>
  </g>
  <path class="cls-2" d="M424.73,126.64h1.5v-1.71h-1.5Zm1.5,1.62h-1.5v8.93h1.5Z" transform="translate(-306 -124.61)"/>
  <g>
    <path class="cls-2" d="M435.42,131.12A2.82,2.82,0,0,0,432.3,128a3.24,3.24,0,0,0-2.7,1.52h0v-1.26h-1.42v8.93h1.5v-4.87c0-2.42,1.5-3,2.36-3,1.47,0,1.91.79,1.91,2.34v5.5h1.5Z" transform="translate(-306 -124.61)"/>
    <path class="cls-2" d="M444.54,128.27h-1.42v1.26h0a3,3,0,0,0-2.66-1.52c-2.37,0-3.72,1.95-3.72,4.46,0,2.14.89,5,3.93,5a2.68,2.68,0,0,0,2.37-1.2v-.07h0v.38c0,1.06.05,3.14-2.55,3.14a1.84,1.84,0,0,1-2-1.42H437c.29,2.37,2.36,2.66,3.42,2.66,4.13,0,4.15-3.21,4.15-4.49Zm-6.29,4.44c0-1.14.12-3.35,2.44-3.35,2.17,0,2.41,2.34,2.41,3.79,0,2.38-1.48,3-2.44,3-1.64,0-2.41-1.49-2.41-3.45" transform="translate(-306 -124.61)"/>
    <path class="cls-2" d="M449.57,129.51v-1.25h-1.43v-2.49h-1.5v2.49h-1.21v1.25h1.21v5.89c0,1.08.32,1.91,1.81,1.91.15,0,.58-.07,1.13-.12V136H449c-.31,0-.9,0-.9-.7v-5.81Z" transform="translate(-306 -124.61)"/>
    <path class="cls-2" d="M451.73,132.72c0-1.2.44-3.42,2.6-3.42s2.6,2.22,2.6,3.42-.44,3.42-2.6,3.42-2.6-2.22-2.6-3.42m-1.55,0c0,2.31,1.3,4.71,4.15,4.71s4.15-2.41,4.15-4.71-1.3-4.71-4.15-4.71-4.15,2.41-4.15,4.71" transform="translate(-306 -124.61)"/>
    <path class="cls-2" d="M467,131.12a2.82,2.82,0,0,0-3.13-3.11,3.24,3.24,0,0,0-2.7,1.52h0v-1.26h-1.42v8.93h1.5v-4.87c0-2.42,1.5-3,2.36-3,1.47,0,1.91.79,1.91,2.34v5.5H467Z" transform="translate(-306 -124.61)"/>
  </g>
</svg>
